<svg viewBox="0 0 200 200" xmlns="http://www.w3.org/2000/svg">
  <!-- Gradient Definitions -->
  <defs>
    <radialGradient id="earthGradient" cx="0.3" cy="0.3" r="0.7">
      <stop offset="0%" stop-color="#87CEEB" />
      <stop offset="50%" stop-color="#4682B4" />
      <stop offset="100%" stop-color="#2F4F4F" />
    </radialGradient>
    <linearGradient id="blueOrbit" x1="0%" y1="0%" x2="100%" y2="100%">
      <stop offset="0%" stop-color="#1E3A8A" />
      <stop offset="100%" stop-color="#3B82F6" />
    </linearGradient>
    <linearGradient id="redOrbit" x1="0%" y1="0%" x2="100%" y2="100%">
      <stop offset="0%" stop-color="#DC2626" />
      <stop offset="100%" stop-color="#EF4444" />
    </linearGradient>
  </defs>

  <!-- Earth Globe -->
  <circle cx="100" cy="100" r="35" fill="url(#earthGradient)" stroke="#E5E7EB" stroke-width="1"/>
  
  <!-- Continents on Earth -->
  <g fill="#F3F4F6">
    <!-- Africa -->
    <path d="M95 85 C105 85, 110 95, 108 105 C106 115, 100 120, 95 118 C90 116, 88 106, 90 96 C92 86, 95 85, 95 85 Z" />
    <!-- Europe -->
    <path d="M92 80 C98 78, 105 80, 107 85 C105 87, 100 85, 95 85 C90 85, 88 82, 92 80 Z" />
    <!-- Part of Asia -->
    <path d="M110 82 C118 84, 125 88, 122 95 C120 92, 115 88, 110 85 C108 83, 110 82, 110 82 Z" />
  </g>

  <!-- Blue Orbital Ring -->
  <ellipse cx="100" cy="100" rx="80" ry="25" fill="none" stroke="url(#blueOrbit)" stroke-width="8" transform="rotate(-20 100 100)" opacity="0.9"/>

  <!-- Red Orbital Ring -->
  <ellipse cx="100" cy="100" rx="80" ry="25" fill="none" stroke="url(#redOrbit)" stroke-width="8" transform="rotate(20 100 100)" opacity="0.9"/>

  <!-- Educational Stars/Sparkles -->
  <g fill="#FBBF24">
    <circle cx="150" cy="60" r="2" />
    <circle cx="50" cy="140" r="2" />
    <circle cx="160" cy="150" r="1.5" />
    <circle cx="40" cy="50" r="1.5" />
  </g>
</svg>